<svg xmlns="http://www.w3.org/2000/svg" viewBox="0 0 32 32">
  <path d="M16 2.81c-7.3 0-13.23 5.93-13.23 13.23 0 2.33.61 4.6 1.78 6.6l-1.9 6.94 7.11-1.86c1.92 1.05 4.09 1.6 6.24 1.6 7.3 0 13.23-5.93 13.23-13.23S23.3 2.81 16 2.81zm0 23.85c-1.83 0-3.64-.47-5.24-1.35l-.38-.21-4.22 1.11 1.13-4.12-.25-.4a10.3 10.3 0 0 1-1.57-5.45c0-5.69 4.63-10.32 10.32-10.32S26.32 10.95 26.32 16.64 21.69 26.66 16 26.66zm5.86-7.62c-.32-.16-1.86-.92-2.15-1.02-.29-.11-.5-.16-.71.16-.21.32-.82 1.02-1 1.23-.18.21-.37.24-.69.08-.32-.16-1.34-.49-2.55-1.56a9.5 9.5 0 0 1-1.77-2.18c-.19-.32-.02-.5.14-.66.14-.14.32-.37.48-.55.16-.18.21-.32.32-.53.11-.21.05-.4-.03-.56-.08-.16-.71-1.71-.97-2.34-.26-.63-.52-.54-.71-.55-.18-.01-.4-.01-.61-.01-.21 0-.55.08-.84.4-.29.32-1.1 1.07-1.1 2.61 0 1.54 1.12 3.03 1.28 3.24.16.21 2.19 3.34 5.31 4.69.74.32 1.32.51 1.77.66.74.24 1.4.21 1.93.13.59-.09 1.86-.76 2.13-1.5.26-.74.26-1.38.18-1.51-.08-.13-.29-.21-.61-.37z" fill="#ffffff"></path>
</svg>
